<?xml version="1.0" standalone="no"?>
<!DOCTYPE svg PUBLIC "-//W3C//DTD SVG 20010904//EN"
 "http://www.w3.org/TR/2001/REC-SVG-20010904/DTD/svg10.dtd">
<svg version="1.0" xmlns="http://www.w3.org/2000/svg"
 width="700.000000pt" height="700.000000pt" viewBox="0 0 700.000000 700.000000"
 preserveAspectRatio="xMidYMid meet">
<metadata>
Created by potrace 1.11, written by Peter Selinger 2001-2013
</metadata>
<g transform="translate(0.000000,700.000000) scale(0.100000,-0.100000)"
fill="#000000" stroke="none">
<path d="M1720 5338 c-124 -14 -187 -25 -282 -49 -464 -117 -875 -414 -1142
-826 -25 -39 -46 -74 -46 -77 0 -4 -10 -23 -23 -44 -92 -147 -192 -478 -212
-702 -7 -72 -8 -309 -1 -360 l3 -25 424 0 424 0 -4 35 c-7 60 -6 242 1 305 47
396 357 754 749 865 109 31 148 35 314 34 153 0 238 -13 372 -54 193 -59 438
-190 613 -327 207 -162 423 -375 580 -573 83 -104 225 -276 235 -282 5 -4 255
-8 554 -8 l544 0 -30 33 c-88 95 -135 152 -403 487 -339 423 -385 476 -574
665 -175 175 -243 234 -411 360 -206 154 -463 306 -610 360 -28 10 -54 22 -60
26 -37 26 -317 106 -465 133 -168 30 -410 40 -550 24z"/>
<path d="M5450 4857 c-52 -4 -138 -17 -190 -28 -145 -30 -127 -25 -205 -55
-11 -4 -25 -8 -32 -10 -51 -10 -247 -112 -291 -150 -124 -108 -164 -301 -95
-454 18 -39 85 -125 122 -155 126 -103 310 -131 466 -71 81 32 151 56 180 62
11 2 31 6 45 9 53 12 178 12 238 -1 253 -53 442 -285 441 -544 0 -60 -3 -83
-24 -177 l-7 -33 447 1 447 0 -6 107 c-12 220 -17 266 -36 366 -61 313 -251
625 -505 827 -144 114 -355 222 -520 265 -16 4 -32 8 -35 9 -3 1 -25 5 -50 10
-25 5 -47 9 -50 10 -8 2 -151 15 -200 18 -25 1 -88 -1 -140 -6z"/>
<path d="M195 3014 c-22 -7 -41 -14 -43 -14 -1 0 -16 -21 -32 -46 -37 -59 -36
-125 4 -177 52 -68 52 -68 475 -65 367 3 380 4 408 24 49 36 74 92 68 148 -7
61 -33 99 -88 124 -39 19 -63 20 -397 20 -277 0 -364 -3 -395 -14z"/>
<path d="M2992 3020 c-48 -11 -100 -65 -110 -114 -15 -75 12 -134 79 -175 31
-19 49 -21 240 -21 198 0 207 1 240 23 58 39 81 84 77 145 -5 56 -25 91 -72
126 -25 19 -42 21 -224 22 -108 1 -212 -2 -230 -6z"/>
<path d="M4187 3015 c-48 -16 -65 -31 -86 -74 -36 -74 -15 -155 52 -205 28
-21 37 -21 492 -21 453 0 464 0 491 21 94 70 97 193 6 262 l-35 27 -441 2
c-337 1 -450 -2 -479 -12z"/>
<path d="M5965 3022 c-35 -7 -85 -52 -101 -90 -30 -70 -7 -147 60 -196 26 -20
42 -21 399 -24 425 -3 437 -1 484 69 53 80 26 185 -60 228 -35 18 -64 19 -400
18 -199 0 -371 -3 -382 -5z"/>
<path d="M509 2510 c-90 -25 -141 -126 -105 -212 15 -36 61 -78 101 -92 31
-11 2967 -9 2996 3 69 26 117 117 98 186 -12 42 -53 93 -88 108 -29 12 -2957
19 -3002 7z"/>
<path d="M4714 2508 c-42 -11 -101 -72 -108 -113 -14 -75 25 -154 91 -181 51
-22 1544 -22 1595 -1 92 39 123 143 68 233 -45 72 3 68 -850 69 -421 1 -779
-2 -796 -7z"/>
<path d="M1134 1945 c-73 -44 -96 -126 -58 -203 46 -93 -7 -87 813 -87 l718 0
37 29 c95 72 84 216 -19 266 -40 19 -62 20 -746 20 l-704 0 -41 -25z"/>
</g>
</svg>
